<svg xmlns="http://www.w3.org/2000/svg" viewBox="0 0 48 48">
  <rect width="48" height="48" rx="12" fill="#FFE3D1"/>
  <g opacity="0.9">
    <circle cx="24" cy="9" r="5" fill="#FF8C6B"/>
    <circle cx="38" cy="17" r="5" fill="#FFC15E"/>
    <circle cx="10" cy="17" r="5" fill="#B49BE8"/>
  </g>
  <path d="M14 30c0-6 5-10 11-10 6 0 10 4 10 9 0 6-5 11-12 11-6 0-9-4-9-8 0-1 0-2 0-2z" fill="#6FC3E8"/>
  <path d="M24 27c4 0 8 2 10 6-4 1-8 1-11-1-1-2 0-5 1-5z" fill="#7ED9B0"/>
  <path d="M14 30l-6 2 6 3z" fill="#FFC15E"/>
  <circle cx="20" cy="28" r="1.7" fill="#4A3B52"/>
</svg>
